<mxfile host="app.diagrams.net" modified="2023-06-19T01:44:28.778Z" agent="Mozilla/5.0 (Windows NT 10.0; Win64; x64) AppleWebKit/537.36 (KHTML, like Gecko) Chrome/114.0.0.0 Safari/537.36" version="21.3.4" etag="Z16Fkb_RdAuqcdl03phV" type="github">
  <diagram name="第 1 页" id="e1tLaOOz9a2nGOZ-eSl0">
    <mxGraphModel>
      <root>
        <mxCell id="0" />
        <mxCell id="1" parent="0" />
      </root>
    </mxGraphModel>
  </diagram>
</mxfile>
